HIERARCHY
ROOT hip
{
	OFFSET 0.000000 0.000000 0.000000 
	CHANNELS 6 Xposition Yposition Zposition Xrotation Zrotation Yrotation
	JOINT abdomen
	{
		OFFSET 0.000000 3.402643 0.000000 
		CHANNELS 3 Xrotation Zrotation Yrotation
		JOINT chest
		{
			OFFSET 0.000000 8.438565 -0.680529 
			CHANNELS 3 Xrotation Zrotation Yrotation
			JOINT neck
			{
				OFFSET 0.000000 10.207942 -0.272212 
				CHANNELS 3 Xrotation Zrotation Yrotation
				JOINT head
				{
					OFFSET 0.000000 3.130431 0.000000 
					CHANNELS 3 Xrotation Zrotation Yrotation
					End Site
					{
						OFFSET 0.000000 3.130435 0.000000 
					}
				}
			}
			JOINT lCollar
			{
				OFFSET 3.470700 6.669187 -0.816635 
				CHANNELS 3 Yrotation Zrotation Xrotation
				JOINT lShldr
				{
					OFFSET 3.198488 0.000000 0.000000 
					CHANNELS 3 Zrotation Yrotation Xrotation
					JOINT lForeArm
					{
						OFFSET 10.139888 0.000000 0.000000 
						CHANNELS 3 Yrotation Zrotation Xrotation
						JOINT lHand
						{
							OFFSET 8.370511 0.000000 0.000000 
							CHANNELS 3 Zrotation Yrotation Xrotation
							End Site
							{
								OFFSET 4.083176 0.000000 0.000000 
							}
						}
					}
				}
			}
			JOINT rCollar
			{
				OFFSET -3.470700 6.669187 -0.816635 
				CHANNELS 3 Yrotation Zrotation Xrotation
				JOINT rShldr
				{
					OFFSET -3.198488 0.000000 0.000000 
					CHANNELS 3 Zrotation Yrotation Xrotation
					JOINT rForeArm
					{
						OFFSET -10.139888 0.000000 0.000000 
						CHANNELS 3 Yrotation Zrotation Xrotation
						JOINT rHand
						{
							OFFSET -8.370511 0.000000 0.000000 
							CHANNELS 3 Zrotation Yrotation Xrotation
							End Site
							{
								OFFSET -4.083176 0.000000 0.000000 
							}
						}
					}
				}
			}
		}
	}
	JOINT lThigh
	{
		OFFSET 5.308129 -1.633274 1.361059 
		CHANNELS 3 Xrotation Zrotation Yrotation
		JOINT lShin
		{
			OFFSET -2.041588 -20.007561 0.000000 
			CHANNELS 3 Xrotation Zrotation Yrotation
			JOINT lFoot
			{
				OFFSET 0.000000 -19.190928 -1.224953 
				CHANNELS 3 Xrotation Yrotation Zrotation
				End Site
				{
					OFFSET 0.000000 -2.449906 4.627600 
				}
			}
		}
	}
	JOINT rThigh
	{
		OFFSET -5.308129 -1.633274 1.361059 
		CHANNELS 3 Xrotation Zrotation Yrotation
		JOINT rShin
		{
			OFFSET 2.041588 -20.007561 0.000000 
			CHANNELS 3 Xrotation Zrotation Yrotation
			JOINT rFoot
			{
				OFFSET 0.000000 -19.190928 -1.224953 
				CHANNELS 3 Xrotation Yrotation Zrotation
				End Site
				{
					OFFSET 0.000000 -2.449906 4.627600 
				}
			}
		}
	}
}
MOTION
Frames: 13
Frame Time: 0.016667
7.187973 43.552216 224.906555 0.763007 -3.329780 24.593901 -26.597200 0.490858 3.773020 11.524600 -2.488330 1.918470 14.507300 -6.106190 4.080120 12.371500 2.968360 2.430150 2.000000 -2.000000 0.000000 101.101997 168.410995 7.199120 23.535400 -0.340191 0.054653 0.056305 0.050318 -114.930000 -2.000000 2.000000 0.000000 72.705101 8.846080 -171.112000 -22.412399 0.341237 0.052128 -0.056713 -0.027160 -127.176003 -9.213277 -9.343145 -13.850243 29.880322 2.660464 2.245501 -26.047792 15.426831 5.943112 -8.204511 5.424463 2.858276 33.849049 -2.766863 -2.444852 -27.918896 -30.341330 -17.232466 
7.357333 43.581154 224.970596 0.812109 -3.554330 26.921801 -26.472300 0.954541 4.375790 11.719500 -2.576510 2.284790 14.510300 -6.205530 4.609190 12.372000 3.016670 2.700900 2.000000 -2.000000 0.000000 -78.402298 16.075600 -171.229004 23.974899 -0.339769 0.055613 0.055868 0.049226 -115.349998 -2.000000 2.000000 0.000000 74.363197 6.154120 -168.384003 -22.568600 0.341095 0.052473 -0.057013 -0.028856 -126.559998 -8.895880 -9.503361 -15.586658 29.131283 2.683189 2.204955 -25.334547 15.300498 5.515405 -9.535517 5.264497 1.203755 36.787209 -2.625094 -2.646297 -25.878059 -30.506699 -16.163507 
7.479344 43.593109 225.081818 1.124590 -2.997470 29.159500 -26.252600 1.345270 5.144840 11.888600 -2.114270 2.704840 13.915300 -7.553470 5.019530 12.180800 2.409490 2.926090 2.000000 -2.000000 0.000000 101.829002 160.335007 6.965730 23.926100 -0.339816 0.055507 0.057265 0.052643 -114.030998 -2.000000 2.000000 0.000000 75.826103 3.833300 -165.645004 -22.920200 0.340770 0.053247 -0.057887 -0.023518 -124.948997 -8.359106 -10.279366 -16.821100 28.065432 2.714783 2.121783 -24.353050 14.796893 4.819731 -11.111069 4.227415 -0.375528 40.409420 -2.460019 -2.865731 -23.241882 -30.372534 -14.582326 
7.646380 43.592468 225.105392 1.358490 -2.274750 32.191799 -26.014500 1.351200 5.550800 11.868800 -2.162420 2.918000 13.870300 -8.339430 5.470110 12.197400 2.032350 3.194980 2.000000 -2.000000 0.000000 102.900002 157.231003 6.300750 23.564699 -0.340163 0.054717 0.056264 0.050216 -114.969002 -2.000000 2.000000 0.000000 77.228897 2.289260 -160.903000 -23.447500 0.340275 0.054403 -0.057421 -0.021240 -125.778999 -7.753428 -11.119968 -17.956404 27.080965 2.720780 2.060776 -22.849613 13.910870 3.815777 -12.389591 3.071634 -1.492869 43.863384 -2.278175 -3.098161 -20.112803 -29.972178 -12.665670 
7.736060 43.608025 225.267166 1.417700 -2.792120 34.871899 -25.964100 1.856630 6.072050 12.143500 -1.961110 3.229280 13.897400 -9.096610 5.902250 12.214400 1.655250 3.443770 2.000000 -2.000000 0.000000 105.054001 154.104004 7.279800 24.033501 -0.339712 0.055741 0.054259 0.044981 -116.971001 -2.000000 2.000000 0.000000 79.052399 1.315480 -157.779999 -23.711201 0.340023 0.054980 -0.056844 -0.027914 -126.902000 -7.878533 -10.619710 -18.816851 26.752491 2.750203 2.023480 -22.611799 11.967122 2.752952 -13.825416 3.463728 -1.782546 46.232571 -2.142556 -3.224835 -16.976631 -28.714483 -10.630772 
7.780647 43.610855 225.364883 1.622880 -2.684470 37.794701 -25.808701 2.251930 6.744370 12.085500 -1.825580 3.621320 14.200400 -9.039340 6.502890 12.371300 1.741220 3.773550 2.000000 -2.000000 0.000000 107.014000 152.046005 6.161820 24.033501 -0.339712 0.055741 0.054513 0.045675 -116.707001 -2.000000 2.000000 0.000000 80.553703 0.958092 -155.115005 -23.877199 0.339863 0.055342 -0.056231 -0.024191 -128.250000 -8.043193 -10.691353 -19.184765 26.526569 2.752620 2.027490 -21.735905 10.149710 1.658609 -14.976995 3.267812 -1.750567 47.893909 -2.036054 -3.315505 -13.124301 -25.272957 -7.855604 
7.859362 43.655739 225.457031 1.603400 -2.743070 41.348701 -25.659700 2.497450 7.014270 12.055800 -1.912370 3.801250 13.834900 -9.063220 6.961010 12.205600 1.800300 3.981920 2.000000 -2.000000 0.000000 109.295998 150.330994 4.678530 23.818600 -0.339920 0.055272 0.056479 0.050749 -114.764000 -2.000000 2.000000 0.000000 81.761299 1.156330 -151.910995 -24.385000 0.339368 0.056448 -0.055402 -0.017929 -130.505997 -8.241004 -10.615057 -19.860956 26.632925 2.765138 2.018883 -20.773394 7.977726 0.429250 -15.753493 3.793406 -0.771177 48.799137 -1.968332 -3.380334 -13.637395 -22.443907 -7.396666 
7.915542 43.611115 225.559235 1.721040 -2.957650 45.291599 -25.585699 2.604680 7.135610 12.133000 -2.086640 3.882950 13.912400 -9.154880 7.655820 12.264600 1.857900 4.343730 2.000000 -2.000000 0.000000 112.418999 148.875000 5.026680 24.316700 -0.339435 0.056357 0.055470 0.048207 -115.739998 -2.000000 2.000000 0.000000 82.665398 1.744920 -148.473007 -25.156500 0.338597 0.058120 -0.054915 -0.012866 -132.322006 -8.815661 -10.586650 -20.936409 26.889103 2.762407 2.033801 -19.954594 5.643806 -0.770598 -16.830019 4.002398 -1.231752 49.282528 -1.906207 -3.418168 -13.626756 -21.446068 -7.184027 
7.985888 43.577930 225.705276 2.268320 -2.790780 49.127399 -25.428600 2.698480 7.360350 12.359500 -1.730200 3.989320 14.116200 -10.296600 8.053310 12.486400 1.392730 4.584700 2.000000 -2.000000 0.000000 113.883003 148.738998 0.651344 23.545200 -0.340182 0.054675 0.059673 0.058066 -111.912003 -2.000000 2.000000 0.000000 83.083099 2.776470 -146.684006 -25.889000 0.337844 0.059697 -0.055077 -0.014746 -131.647995 -9.323842 -11.230803 -22.281778 27.376568 2.719127 2.084947 -19.597767 3.139044 -1.946306 -17.924356 3.839838 -0.655543 49.509666 -1.869993 -3.434992 -13.796413 -20.275625 -6.972115 
8.082679 43.519043 225.789536 1.770210 -3.123510 53.164799 -25.604401 2.865730 7.755360 11.953400 -2.684340 4.253180 14.214400 -10.180900 8.402840 12.437800 1.431650 4.784550 2.000000 -2.000000 0.000000 116.713997 148.164993 -0.307026 23.779600 -0.339958 0.055187 0.059443 0.057570 -112.107002 -2.000000 2.000000 0.000000 83.647598 3.330160 -145.188004 -26.699499 0.336987 0.061431 -0.054948 -0.013275 -132.175995 -9.681747 -10.976441 -23.914637 28.319967 2.728521 2.140445 -19.353855 0.919085 -3.010848 -18.377899 4.735996 0.041787 48.765038 -1.875586 -3.399099 -16.255331 -19.788431 -7.789325 
8.144949 43.514282 225.969284 1.916810 -3.064690 57.338501 -25.558901 2.985140 7.881340 11.905400 -2.548830 4.332600 14.167300 -10.503100 8.816300 12.407800 1.306220 5.009430 2.000000 -2.000000 0.000000 120.600998 147.524994 5.843860 26.152599 -0.337568 0.060320 0.051982 0.048012 -119.510002 -2.000000 2.000000 0.000000 83.891403 4.276700 -144.815002 -27.236601 0.336406 0.062573 -0.054876 -0.012375 -132.498001 -10.104788 -11.325047 -25.269836 28.960402 2.714911 2.176166 -19.109364 -1.173604 -3.954647 -18.676748 5.157668 1.842938 47.381550 -1.939472 -3.345648 -16.531038 -20.150795 -8.053905 
8.219226 43.507080 226.117569 1.995210 -3.152390 61.501202 -25.616301 2.924450 8.277550 11.794600 -2.992080 4.533100 14.561000 -11.126700 9.140970 12.650000 0.909032 5.267360 2.000000 -2.000000 0.000000 122.887001 148.302002 3.599560 25.918301 -0.337813 0.059817 0.051934 0.038090 -119.568001 -2.000000 2.000000 0.000000 84.067200 5.311700 -144.735001 -27.724899 0.335868 0.063607 -0.054789 -0.011203 -132.917999 -10.411913 -11.451743 -26.739090 29.130251 2.690792 2.196745 -18.240921 -3.963138 -5.090141 -19.131979 5.577095 4.289624 45.790585 -2.017357 -3.261992 -18.310762 -18.812860 -8.227588 
8.258039 43.564560 226.293930 2.132520 -3.337540 65.910599 -25.603001 3.036170 8.159440 11.688600 -2.798230 4.489100 14.558000 -11.415800 9.698430 12.679000 0.850975 5.551960 2.000000 -2.000000 0.000000 123.043999 149.307999 -0.724281 25.674101 -0.338067 0.059293 0.053563 0.043023 -117.712997 -2.000000 2.000000 0.000000 83.070503 6.804580 -144.087997 -28.213200 0.335322 0.064636 -0.054494 -0.005550 -134.938995 -11.057114 -11.311502 -26.533081 29.286016 2.703611 2.197329 -17.491173 -8.232913 -6.549008 -19.548389 5.969403 7.166734 43.738358 -2.095074 -3.147529 -19.190678 -17.308016 -7.914186 
